<mxfile host="app.diagrams.net" modified="2023-10-03T00:39:04.251Z" agent="Mozilla/5.0 (Windows NT 10.0; Win64; x64; rv:109.0) Gecko/20100101 Firefox/118.0" etag="uJzt6Yh7Sezc13HXhLd6" version="21.8.2" type="device">
  <diagram name="Page-1" id="8XT7_en0eyZUevHGjaXK">
    <mxGraphModel dx="1434" dy="782" grid="1" gridSize="10" guides="1" tooltips="1" connect="1" arrows="1" fold="1" page="1" pageScale="1" pageWidth="850" pageHeight="1100" math="0" shadow="0">
      <root>
        <mxCell id="0" />
        <mxCell id="1" parent="0" />
        <mxCell id="N5flvpsd7c6En8Wq6tn7-1" value="" style="rounded=0;whiteSpace=wrap;html=1;" parent="1" vertex="1">
          <mxGeometry x="30" y="70" width="1100" height="660" as="geometry" />
        </mxCell>
        <mxCell id="N5flvpsd7c6En8Wq6tn7-2" value="" style="rounded=0;whiteSpace=wrap;html=1;" parent="1" vertex="1">
          <mxGeometry x="30" y="70" width="70" height="660" as="geometry" />
        </mxCell>
        <mxCell id="N5flvpsd7c6En8Wq6tn7-3" value="&lt;font style=&quot;font-size: 36px;&quot; face=&quot;Gugi&quot;&gt;Q&lt;/font&gt;" style="rounded=1;whiteSpace=wrap;html=1;" parent="1" vertex="1">
          <mxGeometry x="40" y="90" width="50" height="50" as="geometry" />
        </mxCell>
        <mxCell id="N5flvpsd7c6En8Wq6tn7-4" value="&lt;font style=&quot;font-size: 21px;&quot;&gt;AN&lt;/font&gt;" style="rounded=1;whiteSpace=wrap;html=1;" parent="1" vertex="1">
          <mxGeometry x="40" y="160" width="50" height="50" as="geometry" />
        </mxCell>
        <mxCell id="N5flvpsd7c6En8Wq6tn7-5" value="&lt;font style=&quot;font-size: 37px;&quot;&gt;+&lt;/font&gt;" style="rounded=1;whiteSpace=wrap;html=1;" parent="1" vertex="1">
          <mxGeometry x="40" y="230" width="50" height="50" as="geometry" />
        </mxCell>
        <mxCell id="N5flvpsd7c6En8Wq6tn7-6" value="" style="rounded=1;whiteSpace=wrap;html=1;" parent="1" vertex="1">
          <mxGeometry x="120" y="90" width="190" height="180" as="geometry" />
        </mxCell>
        <mxCell id="N5flvpsd7c6En8Wq6tn7-7" value="&lt;font style=&quot;font-size: 25px;&quot;&gt;Username&lt;/font&gt;" style="text;html=1;strokeColor=none;fillColor=none;align=center;verticalAlign=middle;whiteSpace=wrap;rounded=0;fontFamily= Rubik Glitch;fontSource=https%3A%2F%2Ffonts.googleapis.com%2Fcss%3Ffamily%3D%2BRubik%2BGlitch;" parent="1" vertex="1">
          <mxGeometry x="320" y="95" width="210" height="40" as="geometry" />
        </mxCell>
        <mxCell id="N5flvpsd7c6En8Wq6tn7-23" style="edgeStyle=orthogonalEdgeStyle;rounded=0;orthogonalLoop=1;jettySize=auto;html=1;exitX=1;exitY=0.5;exitDx=0;exitDy=0;entryX=0;entryY=0.75;entryDx=0;entryDy=0;" parent="1" source="N5flvpsd7c6En8Wq6tn7-8" target="N5flvpsd7c6En8Wq6tn7-22" edge="1">
          <mxGeometry relative="1" as="geometry" />
        </mxCell>
        <mxCell id="N5flvpsd7c6En8Wq6tn7-8" value="Description.. " style="text;html=1;strokeColor=none;fillColor=none;align=center;verticalAlign=middle;whiteSpace=wrap;rounded=0;" parent="1" vertex="1">
          <mxGeometry x="350" y="140" width="140" height="30" as="geometry" />
        </mxCell>
        <mxCell id="N5flvpsd7c6En8Wq6tn7-9" value="&lt;font style=&quot;font-size: 20px;&quot;&gt;Friends&lt;/font&gt;" style="text;html=1;strokeColor=none;fillColor=none;align=center;verticalAlign=middle;whiteSpace=wrap;rounded=0;" parent="1" vertex="1">
          <mxGeometry x="580" y="340" width="60" height="30" as="geometry" />
        </mxCell>
        <mxCell id="N5flvpsd7c6En8Wq6tn7-10" value="" style="verticalLabelPosition=bottom;verticalAlign=top;html=1;shape=mxgraph.basic.acute_triangle;dx=0.5;rotation=-180;labelBackgroundColor=#1F1F1F;fillColor=#000000;movable=1;resizable=1;rotatable=1;deletable=1;editable=1;locked=0;connectable=1;" parent="1" vertex="1">
          <mxGeometry x="650" y="350" width="20" height="10" as="geometry" />
        </mxCell>
        <mxCell id="N5flvpsd7c6En8Wq6tn7-12" value="" style="rounded=0;whiteSpace=wrap;html=1;" parent="1" vertex="1">
          <mxGeometry x="110" y="380" width="990" height="60" as="geometry" />
        </mxCell>
        <mxCell id="N5flvpsd7c6En8Wq6tn7-13" value="" style="shape=image;verticalLabelPosition=bottom;labelBackgroundColor=default;verticalAlign=top;aspect=fixed;imageAspect=0;image=data:image/svg+xml,PHN2ZyB2aWV3Qm94PSIwIDAgNDQ4IDUxMiIgeG1sbnM9Imh0dHA6Ly93d3cudzMub3JnLzIwMDAvc3ZnIj48cGF0aCBkPSJNMTM1LjIgMTcuN0wxMjggMzJIMzJDMTQuMyAzMiAwIDQ2LjMgMCA2NFMxNC4zIDk2IDMyIDk2SDQxNmMxNy43IDAgMzItMTQuMyAzMi0zMnMtMTQuMy0zMi0zMi0zMkgzMjBsLTcuMi0xNC4zQzMwNy40IDYuOCAyOTYuMyAwIDI4NC4yIDBIMTYzLjhjLTEyLjEgMC0yMy4yIDYuOC0yOC42IDE3Ljd6TTQxNiAxMjhIMzJMNTMuMiA0NjdjMS42IDI1LjMgMjIuNiA0NSA0Ny45IDQ1SDM0Ni45YzI1LjMgMCA0Ni4zLTE5LjcgNDcuOS00NUw0MTYgMTI4eiIvPjwvc3ZnPg==;" parent="1" vertex="1">
          <mxGeometry x="1060" y="399.72" width="18" height="20.57" as="geometry" />
        </mxCell>
        <mxCell id="N5flvpsd7c6En8Wq6tn7-14" value="" style="shape=image;verticalLabelPosition=bottom;labelBackgroundColor=default;verticalAlign=top;aspect=fixed;imageAspect=0;image=data:image/svg+xml,PHN2ZyB2aWV3Qm94PSIwIDAgNTEyIDUxMiIgeG1sbnM9Imh0dHA6Ly93d3cudzMub3JnLzIwMDAvc3ZnIj48cGF0aCBkPSJNNjQgMEMyOC43IDAgMCAyOC43IDAgNjRWMzUyYzAgMzUuMyAyOC43IDY0IDY0IDY0aDk2djgwYzAgNi4xIDMuNCAxMS42IDguOCAxNC4zczExLjkgMi4xIDE2LjgtMS41TDMwOS4zIDQxNkg0NDhjMzUuMyAwIDY0LTI4LjcgNjQtNjRWNjRjMC0zNS4zLTI4LjctNjQtNjQtNjRINjR6Ii8+PC9zdmc+;" parent="1" vertex="1">
          <mxGeometry x="990" y="400" width="20" height="20" as="geometry" />
        </mxCell>
        <mxCell id="N5flvpsd7c6En8Wq6tn7-15" value="&lt;font style=&quot;font-size: 19px;&quot;&gt;Friend&#39;s name&lt;font style=&quot;font-size: 19px;&quot;&gt;&lt;br&gt;&lt;/font&gt;&lt;/font&gt;" style="text;html=1;strokeColor=none;fillColor=none;align=center;verticalAlign=middle;whiteSpace=wrap;rounded=0;" parent="1" vertex="1">
          <mxGeometry x="190" y="392.51" width="180" height="35" as="geometry" />
        </mxCell>
        <mxCell id="N5flvpsd7c6En8Wq6tn7-16" value="" style="ellipse;whiteSpace=wrap;html=1;aspect=fixed;" parent="1" vertex="1">
          <mxGeometry x="130" y="385.01" width="50" height="50" as="geometry" />
        </mxCell>
        <mxCell id="N5flvpsd7c6En8Wq6tn7-18" value="" style="ellipse;whiteSpace=wrap;html=1;aspect=fixed;fillColor=#FF0000;" parent="1" vertex="1">
          <mxGeometry x="170" y="420" width="10" height="10" as="geometry" />
        </mxCell>
        <mxCell id="N5flvpsd7c6En8Wq6tn7-22" value="" style="shape=image;verticalLabelPosition=bottom;labelBackgroundColor=default;verticalAlign=top;aspect=fixed;imageAspect=0;image=data:image/svg+xml,PHN2ZyB2aWV3Qm94PSIwIDAgNTEyIDUxMiIgeG1sbnM9Imh0dHA6Ly93d3cudzMub3JnLzIwMDAvc3ZnIj48cGF0aCBkPSJNNDcxLjYgMjEuN2MtMjEuOS0yMS45LTU3LjMtMjEuOS03OS4yIDBMMzYyLjMgNTEuN2w5Ny45IDk3LjkgMzAuMS0zMC4xYzIxLjktMjEuOSAyMS45LTU3LjMgMC03OS4yTDQ3MS42IDIxLjd6bS0yOTkuMiAyMjBjLTYuMSA2LjEtMTAuOCAxMy42LTEzLjUgMjEuOWwtMjkuNiA4OC44Yy0yLjkgOC42LS42IDE4LjEgNS44IDI0LjZzMTUuOSA4LjcgMjQuNiA1LjhsODguOC0yOS42YzguMi0yLjcgMTUuNy03LjQgMjEuOS0xMy41TDQzNy43IDE3Mi4zIDMzOS43IDc0LjMgMTcyLjQgMjQxLjd6TTk2IDY0QzQzIDY0IDAgMTA3IDAgMTYwVjQxNmMwIDUzIDQzIDk2IDk2IDk2SDM1MmM1MyAwIDk2LTQzIDk2LTk2VjMyMGMwLTE3LjctMTQuMy0zMi0zMi0zMnMtMzIgMTQuMy0zMiAzMnY5NmMwIDE3LjctMTQuMyAzMi0zMiAzMkg5NmMtMTcuNyAwLTMyLTE0LjMtMzItMzJWMTYwYzAtMTcuNyAxNC4zLTMyIDMyLTMyaDk2YzE3LjcgMCAzMi0xNC4zIDMyLTMycy0xNC4zLTMyLTMyLTMySDk2eiIvPjwvc3ZnPg==;" parent="1" vertex="1">
          <mxGeometry x="468" y="140" width="22" height="22" as="geometry" />
        </mxCell>
        <mxCell id="phRRxTao9qSYLabgkeI--1" value="" style="rounded=0;whiteSpace=wrap;html=1;" vertex="1" parent="1">
          <mxGeometry x="320" y="750" width="1000" height="350" as="geometry" />
        </mxCell>
        <mxCell id="phRRxTao9qSYLabgkeI--2" value="" style="rounded=0;whiteSpace=wrap;html=1;strokeWidth=3;" vertex="1" parent="1">
          <mxGeometry x="320" y="750" width="320" height="60" as="geometry" />
        </mxCell>
        <mxCell id="phRRxTao9qSYLabgkeI--3" value="" style="endArrow=none;html=1;rounded=0;exitX=1;exitY=1;exitDx=0;exitDy=0;" edge="1" parent="1" source="phRRxTao9qSYLabgkeI--2">
          <mxGeometry width="50" height="50" relative="1" as="geometry">
            <mxPoint x="700" y="900" as="sourcePoint" />
            <mxPoint x="950" y="810" as="targetPoint" />
          </mxGeometry>
        </mxCell>
        <mxCell id="phRRxTao9qSYLabgkeI--4" value="Find Server" style="text;html=1;strokeColor=none;fillColor=none;align=center;verticalAlign=middle;whiteSpace=wrap;rounded=0;" vertex="1" parent="1">
          <mxGeometry x="440" y="765" width="110" height="35" as="geometry" />
        </mxCell>
        <mxCell id="phRRxTao9qSYLabgkeI--5" value="Find Friends" style="text;html=1;strokeColor=none;fillColor=none;align=center;verticalAlign=middle;whiteSpace=wrap;rounded=0;" vertex="1" parent="1">
          <mxGeometry x="740" y="765" width="110" height="35" as="geometry" />
        </mxCell>
        <mxCell id="phRRxTao9qSYLabgkeI--6" value="" style="endArrow=none;html=1;rounded=0;exitX=0.63;exitY=0.002;exitDx=0;exitDy=0;exitPerimeter=0;" edge="1" parent="1" source="phRRxTao9qSYLabgkeI--1">
          <mxGeometry width="50" height="50" relative="1" as="geometry">
            <mxPoint x="700" y="930" as="sourcePoint" />
            <mxPoint x="950" y="810" as="targetPoint" />
          </mxGeometry>
        </mxCell>
        <mxCell id="phRRxTao9qSYLabgkeI--7" value="" style="endArrow=none;html=1;rounded=0;" edge="1" parent="1">
          <mxGeometry width="50" height="50" relative="1" as="geometry">
            <mxPoint x="950" y="810" as="sourcePoint" />
            <mxPoint x="1320" y="810" as="targetPoint" />
          </mxGeometry>
        </mxCell>
        <mxCell id="phRRxTao9qSYLabgkeI--8" value="Create Server" style="text;html=1;strokeColor=none;fillColor=none;align=center;verticalAlign=middle;whiteSpace=wrap;rounded=0;" vertex="1" parent="1">
          <mxGeometry x="1070" y="765" width="110" height="35" as="geometry" />
        </mxCell>
        <mxCell id="phRRxTao9qSYLabgkeI--9" value="" style="rounded=0;whiteSpace=wrap;html=1;" vertex="1" parent="1">
          <mxGeometry x="425" y="900" width="670" height="40" as="geometry" />
        </mxCell>
        <mxCell id="phRRxTao9qSYLabgkeI--10" value="Find Server" style="rounded=1;fillColor=#0057D8;strokeColor=none;html=1;whiteSpace=wrap;fontColor=#ffffff;align=center;verticalAlign=middle;fontStyle=0;fontSize=12;sketch=0;" vertex="1" parent="1">
          <mxGeometry x="1120" y="900" width="96" height="40" as="geometry" />
        </mxCell>
        <mxCell id="phRRxTao9qSYLabgkeI--26" value="" style="rounded=0;whiteSpace=wrap;html=1;" vertex="1" parent="1">
          <mxGeometry x="320" y="1140" width="1000" height="350" as="geometry" />
        </mxCell>
        <mxCell id="phRRxTao9qSYLabgkeI--27" value="" style="rounded=0;whiteSpace=wrap;html=1;strokeWidth=1;" vertex="1" parent="1">
          <mxGeometry x="320" y="1140" width="320" height="60" as="geometry" />
        </mxCell>
        <mxCell id="phRRxTao9qSYLabgkeI--28" value="" style="endArrow=none;html=1;rounded=0;exitX=1;exitY=1;exitDx=0;exitDy=0;" edge="1" source="phRRxTao9qSYLabgkeI--27" parent="1">
          <mxGeometry width="50" height="50" relative="1" as="geometry">
            <mxPoint x="700" y="1290" as="sourcePoint" />
            <mxPoint x="950" y="1200" as="targetPoint" />
          </mxGeometry>
        </mxCell>
        <mxCell id="phRRxTao9qSYLabgkeI--29" value="Find Server" style="text;html=1;strokeColor=none;fillColor=none;align=center;verticalAlign=middle;whiteSpace=wrap;rounded=0;" vertex="1" parent="1">
          <mxGeometry x="440" y="1155" width="110" height="35" as="geometry" />
        </mxCell>
        <mxCell id="phRRxTao9qSYLabgkeI--30" value="Find Friends" style="text;html=1;strokeColor=none;fillColor=none;align=center;verticalAlign=middle;whiteSpace=wrap;rounded=0;" vertex="1" parent="1">
          <mxGeometry x="740" y="1155" width="110" height="35" as="geometry" />
        </mxCell>
        <mxCell id="phRRxTao9qSYLabgkeI--31" value="" style="endArrow=none;html=1;rounded=0;exitX=0.63;exitY=0.002;exitDx=0;exitDy=0;exitPerimeter=0;" edge="1" source="phRRxTao9qSYLabgkeI--26" parent="1">
          <mxGeometry width="50" height="50" relative="1" as="geometry">
            <mxPoint x="700" y="1320" as="sourcePoint" />
            <mxPoint x="950" y="1200" as="targetPoint" />
          </mxGeometry>
        </mxCell>
        <mxCell id="phRRxTao9qSYLabgkeI--33" value="Create Server" style="text;html=1;strokeColor=none;fillColor=none;align=center;verticalAlign=middle;whiteSpace=wrap;rounded=0;" vertex="1" parent="1">
          <mxGeometry x="1070" y="1155" width="110" height="35" as="geometry" />
        </mxCell>
        <mxCell id="phRRxTao9qSYLabgkeI--34" value="" style="rounded=0;whiteSpace=wrap;html=1;" vertex="1" parent="1">
          <mxGeometry x="550" y="1240" width="275" height="40" as="geometry" />
        </mxCell>
        <mxCell id="phRRxTao9qSYLabgkeI--35" value="Create Server" style="rounded=1;fillColor=#0057D8;strokeColor=none;html=1;whiteSpace=wrap;fontColor=#ffffff;align=center;verticalAlign=middle;fontStyle=0;fontSize=12;sketch=0;" vertex="1" parent="1">
          <mxGeometry x="1120" y="1420" width="96" height="40" as="geometry" />
        </mxCell>
        <mxCell id="phRRxTao9qSYLabgkeI--36" value="" style="rounded=0;whiteSpace=wrap;html=1;fillColor=none;strokeWidth=3;" vertex="1" parent="1">
          <mxGeometry x="950" y="1140" width="370" height="60" as="geometry" />
        </mxCell>
        <mxCell id="phRRxTao9qSYLabgkeI--37" value="&lt;font style=&quot;font-size: 15px;&quot;&gt;Server Name&lt;/font&gt;" style="text;html=1;strokeColor=none;fillColor=none;align=center;verticalAlign=middle;whiteSpace=wrap;rounded=0;" vertex="1" parent="1">
          <mxGeometry x="395" y="1245" width="105" height="30" as="geometry" />
        </mxCell>
        <mxCell id="phRRxTao9qSYLabgkeI--42" value="" style="ellipse;whiteSpace=wrap;html=1;aspect=fixed;" vertex="1" parent="1">
          <mxGeometry x="1047.5" y="1220" width="155" height="155" as="geometry" />
        </mxCell>
        <mxCell id="phRRxTao9qSYLabgkeI--43" value="&lt;font style=&quot;font-size: 28px;&quot;&gt;+&lt;/font&gt;" style="ellipse;whiteSpace=wrap;html=1;aspect=fixed;" vertex="1" parent="1">
          <mxGeometry x="1070" y="1350" width="39" height="39" as="geometry" />
        </mxCell>
        <mxCell id="phRRxTao9qSYLabgkeI--44" value="&lt;font style=&quot;font-size: 15px;&quot;&gt;Server Description&lt;/font&gt;" style="text;html=1;strokeColor=none;fillColor=none;align=center;verticalAlign=middle;whiteSpace=wrap;rounded=0;" vertex="1" parent="1">
          <mxGeometry x="395" y="1330" width="135" height="30" as="geometry" />
        </mxCell>
        <mxCell id="phRRxTao9qSYLabgkeI--46" value="" style="rounded=0;whiteSpace=wrap;html=1;" vertex="1" parent="1">
          <mxGeometry x="550" y="1315" width="280" height="135" as="geometry" />
        </mxCell>
        <mxCell id="phRRxTao9qSYLabgkeI--49" value="" style="rounded=0;whiteSpace=wrap;html=1;" vertex="1" parent="1">
          <mxGeometry x="330" y="1510" width="1000" height="350" as="geometry" />
        </mxCell>
        <mxCell id="phRRxTao9qSYLabgkeI--57" value="Set Profile" style="rounded=1;fillColor=#0057D8;strokeColor=none;html=1;whiteSpace=wrap;fontColor=#ffffff;align=center;verticalAlign=middle;fontStyle=0;fontSize=12;sketch=0;" vertex="1" parent="1">
          <mxGeometry x="1130" y="1790" width="96" height="40" as="geometry" />
        </mxCell>
        <mxCell id="phRRxTao9qSYLabgkeI--58" value="Edit Profile" style="rounded=0;whiteSpace=wrap;html=1;fillColor=none;strokeWidth=1;fontSize=12;" vertex="1" parent="1">
          <mxGeometry x="330" y="1510" width="1000" height="60" as="geometry" />
        </mxCell>
        <mxCell id="phRRxTao9qSYLabgkeI--60" value="" style="ellipse;whiteSpace=wrap;html=1;aspect=fixed;" vertex="1" parent="1">
          <mxGeometry x="1057.5" y="1590" width="155" height="155" as="geometry" />
        </mxCell>
        <mxCell id="phRRxTao9qSYLabgkeI--61" value="&lt;font style=&quot;font-size: 28px;&quot;&gt;+&lt;/font&gt;" style="ellipse;whiteSpace=wrap;html=1;aspect=fixed;" vertex="1" parent="1">
          <mxGeometry x="1080" y="1720" width="39" height="39" as="geometry" />
        </mxCell>
        <mxCell id="phRRxTao9qSYLabgkeI--62" value="&lt;font style=&quot;font-size: 15px;&quot;&gt;Profile Description&lt;/font&gt;" style="text;html=1;strokeColor=none;fillColor=none;align=center;verticalAlign=middle;whiteSpace=wrap;rounded=0;" vertex="1" parent="1">
          <mxGeometry x="411.5" y="1600" width="135" height="30" as="geometry" />
        </mxCell>
        <mxCell id="phRRxTao9qSYLabgkeI--63" value="" style="rounded=0;whiteSpace=wrap;html=1;" vertex="1" parent="1">
          <mxGeometry x="560" y="1600" width="280" height="135" as="geometry" />
        </mxCell>
      </root>
    </mxGraphModel>
  </diagram>
</mxfile>
